<svg xmlns="http://www.w3.org/2000/svg" width="1600" height="900" viewBox="0 0 1600 900">
  <defs>
    <linearGradient id="a" x1="0%" y1="6%" x2="100%" y2="94%">
      <stop offset="0%" stop-color="#120c24"/>
      <stop offset="58%" stop-color="#2f3e91"/>
      <stop offset="100%" stop-color="#38bdf8"/>
    </linearGradient>
    <radialGradient id="b" cx="24%" cy="20%" r="54%">
      <stop offset="0%" stop-color="#eff4ff" stop-opacity="0.78"/>
      <stop offset="100%" stop-color="#ffffff" stop-opacity="0"/>
    </radialGradient>
  </defs>
  <rect width="1600" height="900" fill="url(#a)"/>
  <rect width="1600" height="900" fill="url(#b)"/>
  <circle cx="1260" cy="720" r="360" fill="#6dd3ff" fill-opacity="0.2"/>
  <circle cx="380" cy="640" r="320" fill="#9b8eff" fill-opacity="0.2"/>
  <path d="M0 560 C320 440 500 670 820 560 C1080 470 1260 620 1600 510 L1600 900 L0 900 Z" fill="#0f0c2a" fill-opacity="0.46"/>
  <g fill="#eff1ff" fill-opacity="0.75" font-family="JetBrains Mono, Consolas, monospace" font-size="25">
    <text x="160" y="200">type Spec = TurboModule &amp; {</text>
    <text x="200" y="240">add(a: number, b: number): number;</text>
    <text x="160" y="280">}</text>
    <text x="160" y="320">TurboModuleRegistry.getEnforcing&lt;Spec&gt;('NativeMath')</text>
  </g>
  <g fill="#ffffff" fill-opacity="0.15" stroke="#dce6ff" stroke-opacity="0.5">
    <rect x="900" y="210" width="230" height="130" rx="14"/>
    <rect x="1160" y="210" width="230" height="130" rx="14"/>
    <rect x="1030" y="390" width="230" height="130" rx="14"/>
  </g>
  <g stroke="#e2ecff" stroke-opacity="0.62" fill="none">
    <path d="M1130 275 H1160" stroke-width="2.5"/>
    <path d="M1275 340 V390" stroke-width="2.5"/>
    <path d="M1130 455 H1030" stroke-width="2.5"/>
  </g>
</svg>
