<svg xmlns="http://www.w3.org/2000/svg" width="1600" height="900" viewBox="0 0 1600 900">
  <defs>
    <linearGradient id="a" x1="0%" y1="0%" x2="100%" y2="100%">
      <stop offset="0%" stop-color="#07182b"/>
      <stop offset="54%" stop-color="#0f4f68"/>
      <stop offset="100%" stop-color="#20c997"/>
    </linearGradient>
    <radialGradient id="b" cx="70%" cy="18%" r="46%">
      <stop offset="0%" stop-color="#e7fff8" stop-opacity="0.82"/>
      <stop offset="100%" stop-color="#f5ffff" stop-opacity="0"/>
    </radialGradient>
  </defs>
  <rect width="1600" height="900" fill="url(#a)"/>
  <rect width="1600" height="900" fill="url(#b)"/>
  <path d="M0 420 C260 350 340 560 620 500 C870 440 980 620 1260 560 C1380 530 1500 430 1600 390 L1600 900 L0 900 Z" fill="#041223" fill-opacity="0.52"/>
  <g stroke="#cbfff0" stroke-opacity="0.6" fill="none">
    <rect x="200" y="170" width="1200" height="540" rx="26" stroke-width="2.2"/>
    <rect x="250" y="220" width="1100" height="440" rx="20" stroke-width="1.5"/>
  </g>
  <g fill="#e2fff5" fill-opacity="0.84" font-family="JetBrains Mono, Consolas, monospace" font-size="24">
    <text x="290" y="290">[Network] GET /api/user 200 82ms</text>
    <text x="290" y="335">[Logs] render &lt;Home /&gt; x4</text>
    <text x="290" y="380">[Layout] Pressable overlap at y:412</text>
    <text x="290" y="425">[React] memo(ProfileCard) fixed re-render</text>
  </g>
  <g stroke="#d3fff3" stroke-opacity="0.6" fill="none">
    <path d="M380 520 L560 520" stroke-width="3"/>
    <path d="M640 520 L930 520" stroke-width="3"/>
    <path d="M1000 520 L1220 520" stroke-width="3"/>
  </g>
</svg>
